PathFileType	4	(X/Y/Z)	Walk1.trc
DataRate	CameraRate	NumFrames	NumMarkers	Units	OrigDataRate	OrigDataStartFrame	OrigNumFrames
200.000000	200.000000	9	56	mm	200.000000	456	536
Frame#	Times		RBHD		C7		T10		CLAV		RBack		LASI		RASI		LPSI		RACR1		RUA1		RElbow		RFA1		RWRR		RWRU		RCAR		LACR1		LElbow		LElbowM		LFA1		LWRR		LWRU		RTH1		RTH3		RTH2		RTH4		RLFC		RTB1		RTB3		RTB2		RTB4		RMMAL		RMT1		RMT5		LTH3		LTH2		LTH4		LTB1		RPSI		LBHD		LLFC		LTB4		LTH1		LTB3		LFHD		RElbowM		LMT1		LCAL		LMT5		RLMAL		LLMAL		LTB2		LCAR		RToe		LToe		LUA1		RCAL
			X1	Y1	Z1	X2	Y2	Z2	X3	Y3	Z3	X4	Y4	Z4	X5	Y5	Z5	X6	Y6	Z6	X7	Y7	Z7	X8	Y8	Z8	X9	Y9	Z9	X10	Y10	Z10	X11	Y11	Z11	X12	Y12	Z12	X13	Y13	Z13	X14	Y14	Z14	X15	Y15	Z15	X16	Y16	Z16	X17	Y17	Z17	X18	Y18	Z18	X19	Y19	Z19	X20	Y20	Z20	X21	Y21	Z21	X22	Y22	Z22	X23	Y23	Z23	X24	Y24	Z24	X25	Y25	Z25	X26	Y26	Z26	X27	Y27	Z27	X28	Y28	Z28	X29	Y29	Z29	X30	Y30	Z30	X31	Y31	Z31	X32	Y32	Z32	X33	Y33	Z33	X34	Y34	Z34	X35	Y35	Z35	X36	Y36	Z36	X37	Y37	Z37	X38	Y38	Z38	X39	Y39	Z39	X40	Y40	Z40	X41	Y41	Z41	X42	Y42	Z42	X43	Y43	Z43	X44	Y44	Z44	X45	Y45	Z45	X46	Y46	Z46	X47	Y47	Z47	X48	Y48	Z48	X49	Y49	Z49	X50	Y50	Z50	X51	Y51	Z51	X52	Y52	Z52	X53	Y53	Z53	X54	Y54	Z54	X55	Y55	Z55	X56	Y56	Z56

456	2.28	845.99	1541.6	420.35	841.74	1418.2	342.43	760.26	1107.4	316.02	982.02	1344.6	329.98	770.43	1322.6	423.9	941.44	922.14	160.6	964.46	930.31	460.26	773.34	934.86	266.29	902.49	1366	491.77	832.71	1177.2	558.87	768.27	1057.9	571.5	781.06	913.78	601.62	821.81	774.3	573.85	747.71	784.73	592.58	780.68	725.5	607.32	890.7	1416.9	169.32	841.07	1094.5	43.361	813.43	1088.8	120.63	961.47	983.15	24.853	1037.4	900.19	73.233	974.73	865.51	29.435	962.33	726.06	511.89	1033.6	555.09	475.45	1058.9	670.91	467.05	999.21	639.31	498.27	1069.6	460.19	455.33	1101.7	372.5	366.85	1089.2	182.39	364.76	1095.4	275.83	439.38	1098.7	279.54	367.43	1051.7	94.592	322.99	1179.9	37.556	321.52	1156.4	31.166	410.37	862.35	533.7	147.51	942.52	615.99	168.56	871.9	622.81	137.56	799.22	320.03	215.22	776.68	938.58	372.3	846.28	1548.8	282.39	824.8	425.12	160.16	721.68	267.27	223.26	883.98	719.58	133.62	647.29	212.93	229.37	1020.3	1607.4	308.97	757.75	1037.7	477.43	569.47	43.197	293.4	451.84	195.08	259.8	549.55	46.004	211.19	1034.3	78.299	412.57	509.02	184.17	209.26	697.65	293.41	160.72	1058.1	850.97	26.227	1232.5	38.03	342.07	604.44	24.375	277.16	867.68	1225	65.17	981.04	30.658	373.18
457	2.285	852.21	1542	421.29	848.13	1419.3	343.43	766.11	1108.4	316.53	988.27	1345.4	330.18	777.27	1323.6	425.31	946.75	922.98	161.13	970.6	931.72	460.31	779.18	935.49	267.18	909.36	1366.9	492.36	840.89	1177.7	559.61	776.7	1058.2	572.36	790.57	914	602.62	831.99	774.88	574.07	757.85	784.9	593.5	791.17	725.83	608.15	896.7	1418.2	170.18	846.69	1096.4	43.816	819.06	1090.6	121.96	965.92	983.66	25.533	1041.2	899.79	73.474	978.27	865.98	29.629	967.99	726.95	512	1037.2	555.39	475.32	1063.6	670.84	466.87	1003.5	639.72	498.4	1072.4	460.06	455.21	1103.5	371.96	366.64	1090	181.97	364.46	1096.9	275.43	438.97	1100.1	279.15	367.05	1051.9	94.392	322.75	1180	37.226	321.07	1156.4	31.175	410.28	873.33	532.95	147.58	951.91	616.36	168.47	881.3	622.38	137.91	811.38	318.67	214.56	782.87	939.73	373.05	852.39	1549.8	283.46	837.23	424.07	160.17	733.19	267.59	222.51	891.77	719.21	134.2	657.36	214.75	228.42	1026.7	1608.5	310.24	766.25	1038.3	478.15	575.06	46.419	292.55	460.98	201.37	258.18	555.83	49.841	211.1	1034.5	78.149	412.43	518.46	189.06	208.3	709.04	294.54	160.3	1061.5	850.36	26.236	1232.6	37.334	341.93	608.88	24.116	275.18	874.02	1226.3	66.017	980.94	30.646	373.05
458	2.29	858.45	1542.5	422.29	854.29	1420.1	344.4	771.95	1109.3	317.2	994.27	1346.4	330.54	783.87	1324.4	426.51	952	923.8	161.47	976.75	933.16	460.64	784.84	936.23	267.92	916.24	1367.7	492.89	848.91	1178.2	560.35	785.36	1058.8	573.15	799.99	913.98	603.2	842.24	773.58	572.9	768.28	785.28	594.56	802.01	726.19	609.14	902.64	1419.6	171.17	852.35	1097.8	44.582	825	1092.7	123.09	970.36	984.16	26.073	1044.8	899.29	73.864	981.93	866.24	30.163	973.25	727.78	512.15	1040.9	555.68	475.32	1068.4	670.88	466.53	1008.2	640.29	498.32	1074.9	459.84	455.28	1104.6	371.28	367	1090.7	181.6	364.18	1098.3	274.93	438.81	1101.3	278.68	366.85	1052	94.199	322.58	1180.1	37.228	320.97	1156.4	31.17	410.28	884.36	532.44	147.76	961.39	616.99	168.29	890.81	622.02	138.2	823.35	317.48	214.4	788.85	940.68	373.71	858.59	1550.7	284.46	849.7	422.98	160.34	744.21	268.02	222.35	899.41	718.96	135.28	667.4	216.59	228.19	1032.7	1609.4	311.54	774.62	1038.8	479.04	581.96	49.642	291.39	470.38	207.46	256.16	563.51	54.146	210.56	1034.6	78.105	412.28	527.59	193.85	207.42	720.68	295.53	160.09	1064.8	849.73	26.507	1232.7	36.675	341.84	614.16	25.37	272.13	879.95	1227.8	66.727	980.88	30.704	373.1
459	2.295	864.71	1543.2	423.18	860.44	1421.2	345.27	777.88	1110.6	317.83	1000.4	1347.2	330.81	790.6	1325.3	427.94	957.2	924.69	161.76	982.84	934.33	460.78	790.5	937.06	268.52	923.44	1368.6	493.34	857.17	1178.8	561.01	794.05	1059.1	574.04	809.71	914.61	604.48	852.67	773.61	572.04	778.74	785.39	595.62	812.94	726.45	609.89	908.21	1420.9	171.91	857.77	1099.2	45.707	830.83	1094.5	123.92	975.07	984.79	26.479	1048.5	898.77	74.232	985.22	866.77	30.126	978.42	728.61	512.22	1044.8	555.92	475.37	1072.9	670.94	466.29	1012.9	640.88	498.19	1077.5	459.7	455.43	1107.1	371.18	366.41	1091.4	181.22	364.09	1099.6	274.44	438.84	1102.5	278.15	366.77	1052.1	94.048	322.48	1180.1	37.208	320.87	1156.4	31.17	410.31	894.93	531.91	148.05	970.97	617.65	167.88	900.12	621.78	138.44	835.26	316.74	214.78	794.54	941.81	374.3	865.06	1551.7	285.38	862.11	422.04	160.51	755.4	268.93	222.47	906.78	718.5	135.94	677.45	218.99	228.37	1038.8	1610.3	312.72	782.79	1038.9	480.14	590.49	53.185	289.86	480.13	213.52	254.38	571.85	59.073	209.67	1034.7	78.075	412.11	537.62	198.81	206.71	732.59	296.28	160	1067.8	849.09	26.946	1232.6	35.381	341.39	621.82	28.766	269.59	885.79	1229.2	67.744	980.8	30.718	373.13
460	2.3	870.88	1543.9	423.98	866.58	1422.3	346.24	783.74	1111.7	318.59	1006.5	1348.2	330.84	797.19	1326.3	428.9	962.11	925.39	162.04	988.72	935.53	461.05	795.93	937.98	269.03	930.5	1369.3	493.78	865.32	1179.5	561.65	802.46	1059.1	575.2	819.22	915.28	605.45	863.21	774.5	572.1	789.29	785.55	596.52	824.08	727.26	610.39	913.97	1422.1	172.57	862.91	1100.9	46.391	835.77	1096.5	124.78	979.57	985.34	26.856	1052.4	898.42	74.382	988.47	867.08	30.089	983.65	729.49	512.14	1048.5	556.05	475.34	1077.2	671.09	466.1	1017.2	641.3	498.21	1080	459.51	455.37	1108.9	370.78	366.35	1092.1	180.9	364.16	1100.9	274.03	438.91	1103.8	277.8	366.81	1052.1	93.995	322.39	1180.1	37.109	320.71	1156.5	31.147	410.29	905.68	531.49	148.29	980.15	618.47	167.75	909.14	621.58	138.91	847.07	316.87	215.76	800.27	943.08	374.72	871.16	1552.8	286.45	874.61	421.37	160.64	766.31	270.23	223.25	914.16	718.54	136.67	687.65	221.68	228.76	1045	1611.4	313.76	790.89	1039	481.34	599.89	57.035	288.21	490.59	219.31	253.09	580.8	63.835	208.49	1034.8	78.128	412	548.14	203.48	205.97	744.94	296.8	159.7	1070.8	848.51	27.148	1232.8	34.867	340.76	631.35	32.592	268.22	891.82	1230.5	68.376	980.79	30.712	373.13
461	2.305	876.98	1544.4	424.79	872.65	1423.3	347.1	789.49	1112.8	319.31	1012.4	1349.1	330.92	803.69	1327.1	430.41	967.05	926.24	162.23	994.82	936.79	461.11	801.3	938.78	269.68	937.37	1370.1	494.08	873.43	1180.1	562.41	810.89	1059.3	576.15	828.99	915.5	606.27	873.71	775.61	572.5	800.16	786.04	597.45	835.32	727.48	611.53	919.74	1423.5	173.27	868.03	1101.9	46.768	840.49	1098	125.43	983.91	985.82	27.189	1055.9	898.16	74.426	991.66	867.55	29.571	988.67	730.33	512.28	1052	556.19	475.28	1081.5	671.06	465.98	1021.4	641.86	498.33	1082.4	459.35	455.55	1110.4	370.31	366.61	1092.7	180.61	364.31	1102	273.57	439.03	1105	277.52	367.01	1052.2	93.979	322.36	1180.1	36.996	320.5	1156.5	31.131	410.26	916.43	531.37	148.44	989.49	619.49	167.6	918.04	621.48	139.31	858.96	317.78	216.9	805.73	944.57	374.88	877.34	1554.2	287.35	886.94	421.03	160.72	777.54	272.08	223.98	921.27	718.65	137.43	698.2	224.51	229.29	1051.3	1612.5	314.73	799.08	1039.4	482.56	609.92	60.79	286.85	501.42	224.08	252.64	590.29	68.012	207.1	1034.9	78.145	411.97	558.79	207.85	205.42	757.68	297.51	159.47	1073.8	848	27.421	1232.9	34.73	340.17	641.5	36.243	267.4	897.59	1231.7	68.841	980.77	30.745	373.18
462	2.31	883.23	1545.1	425.69	878.68	1424.4	348.08	795.47	1114	320.27	1018.3	1350	331.14	810.22	1328	431.96	971.97	927.08	162.3	1000.7	938.02	461.09	806.76	939.67	270.34	944.45	1371	494.28	881.71	1180.9	563.06	819.39	1060.1	577.11	838.82	916.05	607.07	884.49	776.51	572.89	810.86	786.26	598.48	846.76	727.93	612.53	925.27	1424.7	173.59	873.23	1103.5	47.786	845.24	1099.6	125.63	988.16	986.43	27.491	1059.3	897.96	74.698	994.99	868.24	29.71	993.35	731.16	512.52	1055.3	556.36	475.41	1085.8	671.02	465.84	1025.6	642.55	498.47	1084.6	459.35	455.72	1112	369.89	366.93	1093.3	180.34	364.51	1103	273.26	439.31	1106.1	277.28	367.28	1052.3	94.002	322.39	1180.1	36.931	320.37	1156.5	31.12	410.24	926.64	531.62	148.74	998.7	620.86	167.5	926.9	621.73	139.63	870.75	318.97	217.98	811.34	946.09	375.08	883.6	1555.6	288.26	899.2	421.21	160.67	788.92	274.24	224.68	928.82	718.77	137.91	709.08	227.37	229.77	1057.5	1613.4	315.79	807.15	1040.3	483.75	620.04	64.05	285.58	512.31	228.43	252.41	600.6	72.021	205.5	1034.9	78.341	411.94	569.85	211.87	205.04	770.37	298.6	159.4	1076.7	847.74	27.464	1233	34.689	339.89	651.66	39.364	266.34	903.22	1232.9	69.517	980.73	30.764	373.22
463	2.315	889.46	1546	426.4	884.73	1425.4	348.91	801.16	1115.3	321.14	1024.2	1351	331.13	816.81	1329.1	433.35	976.86	927.92	162.43	1006.5	939.24	461.24	812.32	940.58	271.02	951.53	1371.9	494.46	889.62	1181.6	563.7	828.21	1060.5	578.32	848.75	916.65	607.9	895.43	777.4	573.4	821.87	786.43	599.52	858.29	728.72	613.29	930.63	1426	174.18	878.31	1104.9	48.698	850.21	1101.4	126.21	992	986.97	27.76	1062.8	897.76	74.87	998.36	869.07	29.988	998.05	731.99	512.71	1058.3	556.63	475.75	1089.8	671.08	465.74	1029.5	643.09	498.66	1086.7	459.35	455.95	1113.7	369.56	367.31	1093.9	180.18	364.72	1103.9	273.02	439.64	1107.5	276.97	367.21	1052.4	94.046	322.43	1180.1	36.919	320.3	1156.5	31.098	410.22	937.07	532.02	148.78	1007.9	623.03	167.15	935.74	622.03	139.85	882.91	320.56	218.8	817.23	947.37	376.19	889.74	1557	288.99	911.66	421.97	160.55	800.8	276.22	225.3	936.3	719.18	138.44	720.59	229.99	229.92	1063.8	1614.4	316.86	814.69	1040.7	484.52	630.6	66.946	284.32	523.52	232.66	252.55	611.19	75.841	203.89	1035	78.369	411.9	581.31	215.64	204.77	782.62	300.25	159.58	1079.7	847.44	27.628	1233.1	34.606	339.92	662.36	42.41	264.59	908.76	1234.1	70.11	980.66	30.801	373.28
464	2.32	895.48	1546.7	427.05	890.78	1426.7	349.57	806.56	1116.5	321.84	1030.1	1352	331.02	823.23	1330.2	434.59	981.89	928.72	162.38	1012.2	940.38	461.32	817.64	941.47	271.75	958.43	1372.7	494.36	897.59	1182.4	564.48	836.92	1060.8	579.74	858.63	917.09	608.98	906.59	778.46	574.13	833.13	786.87	600.63	869.99	729.27	614.23	936.09	1427.1	174.65	883.21	1106	49.277	855.08	1102.9	126.84	996.07	987.57	28.049	1066.1	897.64	74.856	1001.6	869.48	29.542	1002.7	732.65	512.91	1061.1	556.82	475.92	1093.5	671.13	465.8	1033.2	643.49	498.91	1088.8	459.21	456.18	1115.3	369.23	367.64	1094.6	180.02	364.91	1104.7	272.82	439.87	1108.7	276.82	367.58	1052.5	94.126	322.48	1180	36.785	320.22	1156.5	31.05	410.23	947.33	533	148.72	1016.8	625.23	167.21	944.72	622.63	139.76	894.91	322.11	219.2	822.94	948.63	376.95	896	1558.1	289.79	924.33	423.26	160.47	813.04	278.33	225.39	943.58	720.03	138.67	732.71	232.39	229.78	1070.1	1615.5	317.92	822.4	1040.9	485.48	642.13	69.597	282.46	535.53	235.68	252.94	622.51	79.355	202.62	1034.8	78.459	412.02	593.01	218.95	204.48	794.85	302.43	159.78	1082.8	846.98	27.843	1233.2	34.48	340.15	673.37	45.09	262.33	914.02	1235.5	70.54	980.65	30.818	373.31
